<svg class="diagram-root" style="background: #f5f6f6" xmlns="http://www.w3.org/2000/svg" xmlns:xlink="http://www.w3.org/1999/xlink"><style>.diagram-root { font-family: "Helvetica Neue", sans-serif; font-size: 12px; } .t { overflow: visible; } .t-bg { y: 40; fill: #fff;   } .th { fill: #005aa0;   } .tht { fill: #fff; font-size: 14px;  } .tf { fill: #323c46; overflow: visible; } .tf.pk { fill: #005aa0; font-weight: bold; } .tf.fk { font-weight: bold; } .ty { fill: #adb1b5; font-weight: normal; text-anchor: end; } .r { fill: transparent; stroke: #c3c3c3; stroke-width: 1; } .l { stroke: 1; } .i { fill: #c2c7ce; stroke: #c2c7ce; } .i.ix { fill: #afb3b6; stroke: #000; } .fa { fill: transparent; overflow: visible; } .fa .bg.hover { fill: #f7f7f7; } .c { cy: 12; r: 4; stroke: #d2d2dc; fill: #d2d2dc; } .hr { fill: transparent; stroke: #323c46; stroke-opacity: 0.035; stroke-width: 13; } .dc { stroke: #fa5a3c; fill: #fa5a3c; } .x { stroke: white; stroke-width: 1; } .hl .th { fill: #1b9bff; } .hl .tht {  } .fhl .bg { fill: #e7f4ff; } .fhls .bg {  } .r.hl { stroke: #1b9bff; } .dim { opacity: 0.25; }</style><g class="drawing-wrapper" transform="translate(3.42857142857142, 109.13999999999999) scale(1,1)"><g class="rs"><path d="M 269.14 150.14 m -1, 0 a 1,1 0 1,0 2,0 a 1,1 0 1,0 -2,0 M 269.14 150.14 m -0.5, 0 a 0.5,0.5 0 1,0 1,0 a 0.5,0.5 0 1,0 -1,0  M269.14 150.14 L269.14 150.14 257.14 150.14 M 269.14 156.14 m -1, 0 a 1,1 0 1,0 2,0 a 1,1 0 1,0 -2,0 M 269.14 156.14 m -0.5, 0 a 0.5,0.5 0 1,0 1,0 a 0.5,0.5 0 1,0 -1,0  M269.14 156.14 L269.14 156.14 262.14 150.14 269.14 144.14 M 269.14 144.14 m -1, 0 a 1,1 0 1,0 2,0 a 1,1 0 1,0 -2,0 M 269.14 144.14 m -0.5, 0 a 0.5,0.5 0 1,0 1,0 a 0.5,0.5 0 1,0 -1,0  M257.14 150.14 Q 237.02 150.14, 216.89 100.71 T 176.63 51.29 M 164.63 51.29 m -1, 0 a 1,1 0 1,0 2,0 a 1,1 0 1,0 -2,0 M 164.63 51.29 m -0.5, 0 a 0.5,0.5 0 1,0 1,0 a 0.5,0.5 0 1,0 -1,0  M164.63 51.29 L164.63 51.29 176.63 51.29 M170.63 57.29 L170.63 57.29 170.63 45.29" id="h1607168654" class="r"></path><path d="M 165.68 244.71 m -1, 0 a 1,1 0 1,0 2,0 a 1,1 0 1,0 -2,0 M 165.68 244.71 m -0.5, 0 a 0.5,0.5 0 1,0 1,0 a 0.5,0.5 0 1,0 -1,0  M165.68 244.71 L165.68 244.71 177.68 244.71 M 165.68 250.71 m -1, 0 a 1,1 0 1,0 2,0 a 1,1 0 1,0 -2,0 M 165.68 250.71 m -0.5, 0 a 0.5,0.5 0 1,0 1,0 a 0.5,0.5 0 1,0 -1,0  M165.68 250.71 L165.68 250.71 172.68 244.71 165.68 238.71 M 165.68 238.71 m -1, 0 a 1,1 0 1,0 2,0 a 1,1 0 1,0 -2,0 M 165.68 238.71 m -0.5, 0 a 0.5,0.5 0 1,0 1,0 a 0.5,0.5 0 1,0 -1,0  M177.68 244.71 Q 197.55 244.71, 217.41 197.43 T 257.14 150.14 M 269.14 150.14 m -1, 0 a 1,1 0 1,0 2,0 a 1,1 0 1,0 -2,0 M 269.14 150.14 m -0.5, 0 a 0.5,0.5 0 1,0 1,0 a 0.5,0.5 0 1,0 -1,0  M269.14 150.14 L269.14 150.14 257.14 150.14 M263.14 156.14 L263.14 156.14 263.14 144.14" id="h3335357949" class="r"></path><path d="M 492.14 62.72 m -1, 0 a 1,1 0 1,0 2,0 a 1,1 0 1,0 -2,0 M 492.14 62.72 m -0.5, 0 a 0.5,0.5 0 1,0 1,0 a 0.5,0.5 0 1,0 -1,0  M492.14 62.72 L492.14 62.72 480.14 62.72 M 492.14 68.72 m -1, 0 a 1,1 0 1,0 2,0 a 1,1 0 1,0 -2,0 M 492.14 68.72 m -0.5, 0 a 0.5,0.5 0 1,0 1,0 a 0.5,0.5 0 1,0 -1,0  M492.14 68.72 L492.14 68.72 485.14 62.72 492.14 56.72 M 492.14 56.72 m -1, 0 a 1,1 0 1,0 2,0 a 1,1 0 1,0 -2,0 M 492.14 56.72 m -0.5, 0 a 0.5,0.5 0 1,0 1,0 a 0.5,0.5 0 1,0 -1,0  M480.14 62.72 Q 462.74 62.72, 445.34 93.93 T 410.53 125.14 M 398.53 125.14 m -1, 0 a 1,1 0 1,0 2,0 a 1,1 0 1,0 -2,0 M 398.53 125.14 m -0.5, 0 a 0.5,0.5 0 1,0 1,0 a 0.5,0.5 0 1,0 -1,0  M398.53 125.14 L398.53 125.14 410.53 125.14 M404.53 131.14 L404.53 131.14 404.53 119.14" id="h211156328" class="r"></path><path d="M 786.58 -22.14 m -1, 0 a 1,1 0 1,0 2,0 a 1,1 0 1,0 -2,0 M 786.58 -22.14 m -0.5, 0 a 0.5,0.5 0 1,0 1,0 a 0.5,0.5 0 1,0 -1,0  M786.58 -22.14 L786.58 -22.14 774.58 -22.14 M 786.58 -16.14 m -1, 0 a 1,1 0 1,0 2,0 a 1,1 0 1,0 -2,0 M 786.58 -16.14 m -0.5, 0 a 0.5,0.5 0 1,0 1,0 a 0.5,0.5 0 1,0 -1,0  M786.58 -16.14 L786.58 -16.14 779.58 -22.14 786.58 -28.14 M 786.58 -28.14 m -1, 0 a 1,1 0 1,0 2,0 a 1,1 0 1,0 -2,0 M 786.58 -28.14 m -0.5, 0 a 0.5,0.5 0 1,0 1,0 a 0.5,0.5 0 1,0 -1,0  M774.58 -22.14 Q 744.65 -22.14, 714.72 20.29 T 654.86 62.72 M 642.86 62.72 m -1, 0 a 1,1 0 1,0 2,0 a 1,1 0 1,0 -2,0 M 642.86 62.72 m -0.5, 0 a 0.5,0.5 0 1,0 1,0 a 0.5,0.5 0 1,0 -1,0  M642.86 62.72 L642.86 62.72 654.86 62.72 M648.86 68.72 L648.86 68.72 648.86 56.72" id="h3177548053" class="r"></path><path d="M 798.15 157 m -1, 0 a 1,1 0 1,0 2,0 a 1,1 0 1,0 -2,0 M 798.15 157 m -0.5, 0 a 0.5,0.5 0 1,0 1,0 a 0.5,0.5 0 1,0 -1,0  M798.15 157 L798.15 157 786.15 157 M 798.15 163 m -1, 0 a 1,1 0 1,0 2,0 a 1,1 0 1,0 -2,0 M 798.15 163 m -0.5, 0 a 0.5,0.5 0 1,0 1,0 a 0.5,0.5 0 1,0 -1,0  M798.15 163 L798.15 163 791.15 157 798.15 151 M 798.15 151 m -1, 0 a 1,1 0 1,0 2,0 a 1,1 0 1,0 -2,0 M 798.15 151 m -0.5, 0 a 0.5,0.5 0 1,0 1,0 a 0.5,0.5 0 1,0 -1,0  M786.15 157 Q 753.33 157, 720.51 122.36 T 654.86 87.72 M 642.86 87.72 m -1, 0 a 1,1 0 1,0 2,0 a 1,1 0 1,0 -2,0 M 642.86 87.72 m -0.5, 0 a 0.5,0.5 0 1,0 1,0 a 0.5,0.5 0 1,0 -1,0  M642.86 87.72 L642.86 87.72 654.86 87.72 M648.86 93.72 L648.86 93.72 648.86 81.72" id="h724011168" class="r"></path></g><g class="hrs"></g><g class="ts"><svg width="146.06" height="100" x="18.57" y="-5.71" id="h475896179" class="t"><rect height="40" width="146.06" class="th"></rect><text x="13" y="25" class="tht">departments</text><rect height="60" width="146.06" class="t-bg" y="40"></rect><text x="13" y="61" class="tf fk">dept_no<tspan x="133.06" class="ty">varchar</tspan></text><text x="13" y="86" class="tf">dept_name<tspan x="133.06" class="ty">varchar</tspan></text></svg><svg width="129.39" height="100" x="269.14" y="68.14" id="h1090417462" class="t"><rect height="40" width="129.39" class="th"></rect><text x="13" y="25" class="tht">dept_emp</text><rect height="60" width="129.39" class="t-bg" y="40"></rect><text x="13" y="61" class="tf fk">emp_no<tspan x="116.38999999999999" class="ty">int</tspan></text><text x="13" y="86" class="tf fk">dept_no<tspan x="116.38999999999999" class="ty">varchar</tspan></text></svg><svg width="129.39" height="100" x="36.29" y="187.71" id="h1676682957" class="t"><rect height="40" width="129.39" class="th"></rect><text x="13" y="25" class="tht">dept_manager</text><rect height="60" width="129.39" class="t-bg" y="40"></rect><text x="13" y="61" class="tf fk">dept_no<tspan x="116.38999999999999" class="ty">varchar</tspan></text><text x="13" y="86" class="tf">emp_no<tspan x="116.38999999999999" class="ty">int</tspan></text></svg><svg width="150.72" height="225" x="492.14" y="5.72" id="h1639608377" class="t"><rect height="40" width="150.72" class="th"></rect><text x="13" y="25" class="tht">employees</text><rect height="185" width="150.72" class="t-bg" y="40"></rect><text x="13" y="61" class="tf fk">emp_no<tspan x="137.72" class="ty">int</tspan></text><text x="13" y="86" class="tf fk">emp_title_id<tspan x="137.72" class="ty">varchar</tspan></text><text x="13" y="111" class="tf">birth_date<tspan x="137.72" class="ty">date</tspan></text><text x="13" y="136" class="tf">first_name<tspan x="137.72" class="ty">varchar</tspan></text><text x="13" y="161" class="tf">last_name<tspan x="137.72" class="ty">varchar</tspan></text><text x="13" y="186" class="tf">sex<tspan x="137.72" class="ty">varchar</tspan></text><text x="13" y="211" class="tf">hire_date<tspan x="137.72" class="ty">date</tspan></text></svg><svg width="102.04" height="100" x="786.58" y="-79.14" id="h2472833127" class="t"><rect height="40" width="102.04" class="th"></rect><text x="13" y="25" class="tht">salaries</text><rect height="60" width="102.04" class="t-bg" y="40"></rect><text x="13" y="61" class="tf fk">emp_no<tspan x="89.04" class="ty">int</tspan></text><text x="13" y="86" class="tf">salary<tspan x="89.04" class="ty">int</tspan></text></svg><svg width="120.7" height="100" x="798.15" y="100" id="h311790747" class="t"><rect height="40" width="120.7" class="th"></rect><text x="13" y="25" class="tht">titles</text><rect height="60" width="120.7" class="t-bg" y="40"></rect><text x="13" y="61" class="tf fk">title_id<tspan x="107.7" class="ty">varchar</tspan></text><text x="13" y="86" class="tf">title<tspan x="107.7" class="ty">varchar</tspan></text></svg></g></g><text class="qdbd-link" x="2000" y="4000">www.quickdatabasediagrams.com</text></svg>